<mxfile host="app.diagrams.net" modified="2024-03-12T14:20:25.017Z" agent="Mozilla/5.0 (Macintosh; Intel Mac OS X 10_15_7) AppleWebKit/537.36 (KHTML, like Gecko) Chrome/122.0.0.0 Safari/537.36" etag="f-5ZA9rSRgQbtmZcj9mV" version="24.0.5" type="github">
  <diagram name="第 1 页" id="NLB9UM2ylpj_icedLMVW">
    <mxGraphModel dx="954" dy="623" grid="0" gridSize="10" guides="1" tooltips="1" connect="1" arrows="1" fold="1" page="0" pageScale="1" pageWidth="200000" pageHeight="200000" math="0" shadow="0">
      <root>
        <mxCell id="0" />
        <mxCell id="1" parent="0" />
        <mxCell id="JR0AAo8gTUGPo9XY3_hH-3" value="" style="edgeStyle=none;curved=1;rounded=0;orthogonalLoop=1;jettySize=auto;html=1;fontSize=12;startSize=8;endSize=8;" edge="1" parent="1" source="JR0AAo8gTUGPo9XY3_hH-1" target="JR0AAo8gTUGPo9XY3_hH-2">
          <mxGeometry relative="1" as="geometry" />
        </mxCell>
        <mxCell id="JR0AAo8gTUGPo9XY3_hH-1" value="开始" style="rounded=1;whiteSpace=wrap;html=1;" vertex="1" parent="1">
          <mxGeometry x="140" y="170" width="120" height="60" as="geometry" />
        </mxCell>
        <mxCell id="JR0AAo8gTUGPo9XY3_hH-5" value="" style="edgeStyle=none;curved=1;rounded=0;orthogonalLoop=1;jettySize=auto;html=1;fontSize=12;startSize=8;endSize=8;" edge="1" parent="1" source="JR0AAo8gTUGPo9XY3_hH-2" target="JR0AAo8gTUGPo9XY3_hH-4">
          <mxGeometry relative="1" as="geometry" />
        </mxCell>
        <mxCell id="JR0AAo8gTUGPo9XY3_hH-2" value="查询已上线项目" style="whiteSpace=wrap;html=1;rounded=1;" vertex="1" parent="1">
          <mxGeometry x="140" y="350" width="120" height="60" as="geometry" />
        </mxCell>
        <mxCell id="JR0AAo8gTUGPo9XY3_hH-7" value="" style="edgeStyle=none;curved=1;rounded=0;orthogonalLoop=1;jettySize=auto;html=1;fontSize=12;startSize=8;endSize=8;" edge="1" parent="1" source="JR0AAo8gTUGPo9XY3_hH-4" target="JR0AAo8gTUGPo9XY3_hH-6">
          <mxGeometry relative="1" as="geometry" />
        </mxCell>
        <mxCell id="JR0AAo8gTUGPo9XY3_hH-14" value="" style="edgeStyle=none;curved=1;rounded=0;orthogonalLoop=1;jettySize=auto;html=1;fontSize=12;startSize=8;endSize=8;" edge="1" parent="1" source="JR0AAo8gTUGPo9XY3_hH-4" target="JR0AAo8gTUGPo9XY3_hH-13">
          <mxGeometry relative="1" as="geometry" />
        </mxCell>
        <mxCell id="JR0AAo8gTUGPo9XY3_hH-4" value="是否设置特殊账户" style="rhombus;whiteSpace=wrap;html=1;rounded=1;" vertex="1" parent="1">
          <mxGeometry x="160" y="520" width="80" height="80" as="geometry" />
        </mxCell>
        <mxCell id="JR0AAo8gTUGPo9XY3_hH-10" value="" style="edgeStyle=none;curved=1;rounded=0;orthogonalLoop=1;jettySize=auto;html=1;fontSize=12;startSize=8;endSize=8;" edge="1" parent="1" source="JR0AAo8gTUGPo9XY3_hH-6" target="JR0AAo8gTUGPo9XY3_hH-9">
          <mxGeometry relative="1" as="geometry" />
        </mxCell>
        <mxCell id="JR0AAo8gTUGPo9XY3_hH-6" value="lark告警" style="whiteSpace=wrap;html=1;rounded=1;" vertex="1" parent="1">
          <mxGeometry x="340" y="530" width="120" height="60" as="geometry" />
        </mxCell>
        <mxCell id="JR0AAo8gTUGPo9XY3_hH-8" value="否" style="text;html=1;align=center;verticalAlign=middle;resizable=0;points=[];autosize=1;strokeColor=none;fillColor=none;fontSize=16;" vertex="1" parent="1">
          <mxGeometry x="273.5" y="528.5" width="34" height="31" as="geometry" />
        </mxCell>
        <mxCell id="JR0AAo8gTUGPo9XY3_hH-9" value="结束" style="whiteSpace=wrap;html=1;rounded=1;" vertex="1" parent="1">
          <mxGeometry x="580" y="530" width="120" height="60" as="geometry" />
        </mxCell>
        <mxCell id="JR0AAo8gTUGPo9XY3_hH-13" value="结束" style="whiteSpace=wrap;html=1;rounded=1;" vertex="1" parent="1">
          <mxGeometry x="140" y="730" width="120" height="60" as="geometry" />
        </mxCell>
      </root>
    </mxGraphModel>
  </diagram>
</mxfile>
